<mxfile host="app.diagrams.net" agent="Mozilla/5.0 (Windows NT 10.0; Win64; x64) AppleWebKit/537.36 (KHTML, like Gecko) Chrome/132.0.0.0 Safari/537.36" version="26.0.6">
  <diagram name="Page-1" id="a1LdfqojrPnYAlAPhHE1">
    <mxGraphModel dx="1194" dy="836" grid="0" gridSize="10" guides="1" tooltips="1" connect="1" arrows="1" fold="1" page="0" pageScale="1" pageWidth="850" pageHeight="1100" math="0" shadow="0">
      <root>
        <mxCell id="0" />
        <mxCell id="1" parent="0" />
        <mxCell id="FTGQNBU6VXvvOI9jCCx0-1" value="PDH" style="rounded=0;whiteSpace=wrap;html=1;" vertex="1" parent="1">
          <mxGeometry x="-151" y="-168" width="120" height="60" as="geometry" />
        </mxCell>
        <mxCell id="FTGQNBU6VXvvOI9jCCx0-2" value="RIO" style="rounded=0;whiteSpace=wrap;html=1;" vertex="1" parent="1">
          <mxGeometry x="355" y="-165" width="120" height="60" as="geometry" />
        </mxCell>
        <mxCell id="FTGQNBU6VXvvOI9jCCx0-3" value="" style="endArrow=classic;html=1;rounded=0;fontSize=12;startSize=8;endSize=8;curved=1;" edge="1" parent="1">
          <mxGeometry relative="1" as="geometry">
            <mxPoint x="16" y="-247" as="sourcePoint" />
            <mxPoint x="233" y="-251" as="targetPoint" />
          </mxGeometry>
        </mxCell>
        <mxCell id="FTGQNBU6VXvvOI9jCCx0-4" value="Resistor&lt;div&gt;(inbuilt/added)&lt;/div&gt;" style="edgeLabel;resizable=0;html=1;fontSize=12;;align=center;verticalAlign=middle;" connectable="0" vertex="1" parent="FTGQNBU6VXvvOI9jCCx0-3">
          <mxGeometry relative="1" as="geometry" />
        </mxCell>
        <mxCell id="FTGQNBU6VXvvOI9jCCx0-5" value="" style="endArrow=classic;html=1;rounded=0;fontSize=12;startSize=8;endSize=8;curved=1;" edge="1" parent="1">
          <mxGeometry relative="1" as="geometry">
            <mxPoint x="26" y="-237" as="sourcePoint" />
            <mxPoint x="243" y="-241" as="targetPoint" />
          </mxGeometry>
        </mxCell>
        <mxCell id="FTGQNBU6VXvvOI9jCCx0-6" value="Resistor&lt;div&gt;(inbuilt/added)&lt;/div&gt;" style="edgeLabel;resizable=0;html=1;fontSize=12;;align=center;verticalAlign=middle;" connectable="0" vertex="1" parent="FTGQNBU6VXvvOI9jCCx0-5">
          <mxGeometry relative="1" as="geometry" />
        </mxCell>
        <mxCell id="FTGQNBU6VXvvOI9jCCx0-7" value="" style="endArrow=classic;html=1;rounded=0;fontSize=12;startSize=8;endSize=8;curved=1;" edge="1" parent="1">
          <mxGeometry relative="1" as="geometry">
            <mxPoint x="36" y="-227" as="sourcePoint" />
            <mxPoint x="253" y="-231" as="targetPoint" />
          </mxGeometry>
        </mxCell>
        <mxCell id="FTGQNBU6VXvvOI9jCCx0-8" value="Resistor&lt;div&gt;(inbuilt/added)&lt;/div&gt;" style="edgeLabel;resizable=0;html=1;fontSize=12;;align=center;verticalAlign=middle;" connectable="0" vertex="1" parent="FTGQNBU6VXvvOI9jCCx0-7">
          <mxGeometry relative="1" as="geometry" />
        </mxCell>
        <mxCell id="FTGQNBU6VXvvOI9jCCx0-9" value="" style="endArrow=classic;html=1;rounded=0;fontSize=12;startSize=8;endSize=8;curved=1;" edge="1" parent="1">
          <mxGeometry relative="1" as="geometry">
            <mxPoint x="46" y="-217" as="sourcePoint" />
            <mxPoint x="263" y="-221" as="targetPoint" />
          </mxGeometry>
        </mxCell>
        <mxCell id="FTGQNBU6VXvvOI9jCCx0-10" value="Resistor&lt;div&gt;(inbuilt/added)&lt;/div&gt;" style="edgeLabel;resizable=0;html=1;fontSize=12;;align=center;verticalAlign=middle;" connectable="0" vertex="1" parent="FTGQNBU6VXvvOI9jCCx0-9">
          <mxGeometry relative="1" as="geometry" />
        </mxCell>
      </root>
    </mxGraphModel>
  </diagram>
</mxfile>
